<mxfile host="Electron" agent="Mozilla/5.0 (Windows NT 10.0; Win64; x64) AppleWebKit/537.36 (KHTML, like Gecko) draw.io/24.6.4 Chrome/124.0.6367.207 Electron/30.0.6 Safari/537.36" modified="2025-07-28T23:00:15.026Z" etag="8w3OyPBM-CrXyvHfY5rQ" version="24.6.4" type="device">
  <diagram id="7tyXC_9czodGn7zoQxz3" name="Task-1">
    <mxGraphModel dx="1708" dy="943" grid="1" gridSize="10" guides="1" tooltips="1" connect="1" arrows="1" fold="1" page="1" pageScale="1" pageWidth="850" pageHeight="1100" math="0" shadow="0">
      <root>
        <mxCell id="0" />
        <mxCell id="1" parent="0" />
        <mxCell id="Hvz2LV9cxiTIPc9q51GT-6" style="edgeStyle=orthogonalEdgeStyle;rounded=0;orthogonalLoop=1;jettySize=auto;html=1;exitX=0.5;exitY=1;exitDx=0;exitDy=0;entryX=0.5;entryY=0;entryDx=0;entryDy=0;" parent="1" source="Hvz2LV9cxiTIPc9q51GT-1" target="Hvz2LV9cxiTIPc9q51GT-3" edge="1">
          <mxGeometry relative="1" as="geometry" />
        </mxCell>
        <mxCell id="Hvz2LV9cxiTIPc9q51GT-1" value="POST Order API" style="rounded=0;whiteSpace=wrap;html=1;fillColor=#dae8fc;strokeColor=#6c8ebf;" parent="1" vertex="1">
          <mxGeometry x="250" y="240" width="270" height="60" as="geometry" />
        </mxCell>
        <mxCell id="yGy-t5Rw6NrBcIYputm1-3" style="edgeStyle=orthogonalEdgeStyle;rounded=0;orthogonalLoop=1;jettySize=auto;html=1;entryX=0.5;entryY=0;entryDx=0;entryDy=0;" parent="1" source="Hvz2LV9cxiTIPc9q51GT-2" target="Hvz2LV9cxiTIPc9q51GT-4" edge="1">
          <mxGeometry relative="1" as="geometry" />
        </mxCell>
        <mxCell id="Hvz2LV9cxiTIPc9q51GT-2" value="Create Order" style="rounded=0;whiteSpace=wrap;html=1;" parent="1" vertex="1">
          <mxGeometry x="400" y="450" width="120" height="60" as="geometry" />
        </mxCell>
        <mxCell id="yGy-t5Rw6NrBcIYputm1-2" style="edgeStyle=orthogonalEdgeStyle;rounded=0;orthogonalLoop=1;jettySize=auto;html=1;entryX=0.5;entryY=0;entryDx=0;entryDy=0;" parent="1" source="Hvz2LV9cxiTIPc9q51GT-3" target="Hvz2LV9cxiTIPc9q51GT-2" edge="1">
          <mxGeometry relative="1" as="geometry" />
        </mxCell>
        <mxCell id="Hvz2LV9cxiTIPc9q51GT-3" value="Check Inventory" style="rounded=0;whiteSpace=wrap;html=1;" parent="1" vertex="1">
          <mxGeometry x="400" y="350" width="120" height="60" as="geometry" />
        </mxCell>
        <mxCell id="yGy-t5Rw6NrBcIYputm1-4" style="edgeStyle=orthogonalEdgeStyle;rounded=0;orthogonalLoop=1;jettySize=auto;html=1;entryX=0.5;entryY=0;entryDx=0;entryDy=0;" parent="1" source="Hvz2LV9cxiTIPc9q51GT-4" target="Hvz2LV9cxiTIPc9q51GT-5" edge="1">
          <mxGeometry relative="1" as="geometry" />
        </mxCell>
        <mxCell id="Hvz2LV9cxiTIPc9q51GT-4" value="Process Payment" style="rounded=0;whiteSpace=wrap;html=1;" parent="1" vertex="1">
          <mxGeometry x="400" y="560" width="120" height="60" as="geometry" />
        </mxCell>
        <mxCell id="Hvz2LV9cxiTIPc9q51GT-5" value="Disptach" style="rounded=0;whiteSpace=wrap;html=1;" parent="1" vertex="1">
          <mxGeometry x="400" y="670" width="120" height="60" as="geometry" />
        </mxCell>
        <mxCell id="BV1sT7RlSbL-M5zNZtsu-1" value="&lt;h1 style=&quot;margin-top: 0px;&quot;&gt;Post Order API&lt;/h1&gt;&lt;p&gt;All the functionalities are within the API call.&lt;/p&gt;" style="text;html=1;whiteSpace=wrap;overflow=hidden;rounded=0;" parent="1" vertex="1">
          <mxGeometry x="250" y="150" width="295" height="80" as="geometry" />
        </mxCell>
        <mxCell id="5_1EHM-UzOyQahoCsfOj-1" value="&lt;h1 style=&quot;margin-top: 0px;&quot;&gt;Problem Definition&lt;/h1&gt;&lt;div style=&quot;-webkit-user-drag: none; -webkit-tap-highlight-color: transparent; margin: 0px; padding: 0px; user-select: text; clear: both; cursor: text; overflow: visible; position: relative; direction: ltr; font-family: &amp;quot;Segoe UI&amp;quot;, &amp;quot;Segoe UI Web&amp;quot;, Arial, Verdana, sans-serif; background-color: rgb(255, 255, 255);&quot; class=&quot;OutlineElement Ltr SCXW99388809 BCX8&quot;&gt;&lt;p style=&quot;-webkit-user-drag: none; -webkit-tap-highlight-color: transparent; margin: 0px 0px 10.6667px; padding: 0px; user-select: text; overflow-wrap: break-word; white-space-collapse: preserve; vertical-align: baseline; font-kerning: none; background-color: transparent; color: windowtext;&quot; class=&quot;Paragraph SCXW99388809 BCX8&quot;&gt;&lt;span style=&quot;-webkit-user-drag: none; -webkit-tap-highlight-color: transparent; margin: 0px; padding: 0px; user-select: text; font-variant-ligatures: none !important; font-size: 12pt; line-height: 20.925px; font-family: Aptos, Aptos_EmbeddedFont, Aptos_MSFontService, sans-serif;&quot; class=&quot;TextRun SCXW99388809 BCX8&quot; lang=&quot;EN-US&quot; data-contrast=&quot;auto&quot;&gt;&lt;span style=&quot;-webkit-user-drag: none; -webkit-tap-highlight-color: transparent; margin: 0px; padding: 0px; user-select: text;&quot; class=&quot;NormalTextRun SCXW99388809 BCX8&quot;&gt;You&#39;re&lt;/span&gt;&lt;span style=&quot;-webkit-user-drag: none; -webkit-tap-highlight-color: transparent; margin: 0px; padding: 0px; user-select: text;&quot; class=&quot;NormalTextRun SCXW99388809 BCX8&quot;&gt; designing a high-traffic order processing system for an e-commerce platform. The system should support the following workflow:&lt;/span&gt;&lt;/span&gt;&lt;span style=&quot;-webkit-user-drag: none; -webkit-tap-highlight-color: transparent; margin: 0px; padding: 0px; user-select: text; font-size: 12pt; line-height: 20.925px; font-family: Aptos, Aptos_EmbeddedFont, Aptos_MSFontService, sans-serif;&quot; data-ccp-props=&quot;{}&quot; class=&quot;EOP SCXW99388809 BCX8&quot;&gt;&amp;nbsp;&lt;/span&gt;&lt;/p&gt;&lt;/div&gt;&lt;div style=&quot;-webkit-user-drag: none; -webkit-tap-highlight-color: transparent; margin: 0px; padding: 0px; user-select: text; position: relative; font-family: &amp;quot;Segoe UI&amp;quot;, &amp;quot;Segoe UI Web&amp;quot;, Arial, Verdana, sans-serif; background-color: rgb(255, 255, 255);&quot; class=&quot;ListContainerWrapper SCXW99388809 BCX8&quot;&gt;&lt;ol style=&quot;-webkit-user-drag: none; -webkit-tap-highlight-color: transparent; margin: 0px; padding: 0px; user-select: text; cursor: text; overflow: visible;&quot; start=&quot;1&quot; role=&quot;list&quot; class=&quot;NumberListStyle1 SCXW99388809 BCX8&quot;&gt;&lt;li style=&quot;-webkit-user-drag: none; -webkit-tap-highlight-color: transparent; margin: 0px 0px 0px 24px; padding: 0px; user-select: text; clear: both; cursor: text; overflow: visible; position: relative; direction: ltr; display: block; font-size: 12pt; font-family: Aptos, Aptos_MSFontService, sans-serif; vertical-align: baseline;&quot; class=&quot;OutlineElement Ltr SCXW99388809 BCX8&quot; role=&quot;listitem&quot; data-aria-level=&quot;1&quot; data-aria-posinset=&quot;1&quot; data-list-defn-props=&quot;{&amp;quot;335552541&amp;quot;:0,&amp;quot;335559685&amp;quot;:720,&amp;quot;335559991&amp;quot;:360,&amp;quot;469769242&amp;quot;:[65533,0],&amp;quot;469777803&amp;quot;:&amp;quot;left&amp;quot;,&amp;quot;469777804&amp;quot;:&amp;quot;%1.&amp;quot;,&amp;quot;469777815&amp;quot;:&amp;quot;hybridMultilevel&amp;quot;}&quot; data-listid=&quot;3&quot; data-font=&quot;&quot; data-leveltext=&quot;%1.&quot; aria-setsize=&quot;-1&quot;&gt;&lt;p style=&quot;-webkit-user-drag: none; -webkit-tap-highlight-color: transparent; margin: 0px; padding: 0px; user-select: text; overflow-wrap: break-word; white-space-collapse: preserve; vertical-align: baseline; font-kerning: none; background-color: transparent; color: windowtext;&quot; class=&quot;Paragraph SCXW99388809 BCX8&quot;&gt;&lt;span style=&quot;-webkit-user-drag: none; -webkit-tap-highlight-color: transparent; margin: 0px; padding: 0px; user-select: text; font-variant-ligatures: none !important; font-size: 12pt; line-height: 20.925px; font-family: Aptos, Aptos_EmbeddedFont, Aptos_MSFontService, sans-serif;&quot; class=&quot;TextRun SCXW99388809 BCX8&quot; lang=&quot;EN-US&quot; data-contrast=&quot;auto&quot;&gt;Customers place orders through a web/mobile application.&lt;/span&gt;&lt;span style=&quot;-webkit-user-drag: none; -webkit-tap-highlight-color: transparent; margin: 0px; padding: 0px; user-select: text; font-size: 12pt; line-height: 20.925px; font-family: Aptos, Aptos_EmbeddedFont, Aptos_MSFontService, sans-serif;&quot; data-ccp-props=&quot;{}&quot; class=&quot;EOP SCXW99388809 BCX8&quot;&gt;&amp;nbsp;&lt;/span&gt;&lt;/p&gt;&lt;/li&gt;&lt;/ol&gt;&lt;/div&gt;&lt;div style=&quot;-webkit-user-drag: none; -webkit-tap-highlight-color: transparent; margin: 0px; padding: 0px; user-select: text; position: relative; font-family: &amp;quot;Segoe UI&amp;quot;, &amp;quot;Segoe UI Web&amp;quot;, Arial, Verdana, sans-serif; background-color: rgb(255, 255, 255);&quot; class=&quot;ListContainerWrapper SCXW99388809 BCX8&quot;&gt;&lt;ol style=&quot;-webkit-user-drag: none; -webkit-tap-highlight-color: transparent; margin: 0px; padding: 0px; user-select: text; cursor: text; overflow: visible;&quot; start=&quot;2&quot; role=&quot;list&quot; class=&quot;NumberListStyle1 SCXW99388809 BCX8&quot;&gt;&lt;li style=&quot;-webkit-user-drag: none; -webkit-tap-highlight-color: transparent; margin: 0px 0px 0px 24px; padding: 0px; user-select: text; clear: both; cursor: text; overflow: visible; position: relative; direction: ltr; display: block; font-size: 12pt; font-family: Aptos, Aptos_MSFontService, sans-serif; vertical-align: baseline;&quot; class=&quot;OutlineElement Ltr SCXW99388809 BCX8&quot; role=&quot;listitem&quot; data-aria-level=&quot;1&quot; data-aria-posinset=&quot;2&quot; data-list-defn-props=&quot;{&amp;quot;335552541&amp;quot;:0,&amp;quot;335559685&amp;quot;:720,&amp;quot;335559991&amp;quot;:360,&amp;quot;469769242&amp;quot;:[65533,0],&amp;quot;469777803&amp;quot;:&amp;quot;left&amp;quot;,&amp;quot;469777804&amp;quot;:&amp;quot;%1.&amp;quot;,&amp;quot;469777815&amp;quot;:&amp;quot;hybridMultilevel&amp;quot;}&quot; data-listid=&quot;3&quot; data-font=&quot;&quot; data-leveltext=&quot;%1.&quot; aria-setsize=&quot;-1&quot;&gt;&lt;p style=&quot;-webkit-user-drag: none; -webkit-tap-highlight-color: transparent; margin: 0px; padding: 0px; user-select: text; overflow-wrap: break-word; white-space-collapse: preserve; vertical-align: baseline; font-kerning: none; background-color: transparent; color: windowtext;&quot; class=&quot;Paragraph SCXW99388809 BCX8&quot;&gt;&lt;span style=&quot;-webkit-user-drag: none; -webkit-tap-highlight-color: transparent; margin: 0px; padding: 0px; user-select: text; font-variant-ligatures: none !important; font-size: 12pt; line-height: 20.925px; font-family: Aptos, Aptos_EmbeddedFont, Aptos_MSFontService, sans-serif;&quot; class=&quot;TextRun SCXW99388809 BCX8&quot; lang=&quot;EN-US&quot; data-contrast=&quot;auto&quot;&gt;&lt;span style=&quot;-webkit-user-drag: none; -webkit-tap-highlight-color: transparent; margin: 0px; padding: 0px; user-select: text;&quot; class=&quot;NormalTextRun SCXW99388809 BCX8&quot;&gt;Orders should be &lt;/span&gt;&lt;span style=&quot;-webkit-user-drag: none; -webkit-tap-highlight-color: transparent; margin: 0px; padding: 0px; user-select: text;&quot; class=&quot;NormalTextRun SCXW99388809 BCX8&quot;&gt;validated&lt;/span&gt;&lt;span style=&quot;-webkit-user-drag: none; -webkit-tap-highlight-color: transparent; margin: 0px; padding: 0px; user-select: text;&quot; class=&quot;NormalTextRun SCXW99388809 BCX8&quot;&gt; (inventory check) before confirmation.&lt;/span&gt;&lt;/span&gt;&lt;span style=&quot;-webkit-user-drag: none; -webkit-tap-highlight-color: transparent; margin: 0px; padding: 0px; user-select: text; font-size: 12pt; line-height: 20.925px; font-family: Aptos, Aptos_EmbeddedFont, Aptos_MSFontService, sans-serif;&quot; data-ccp-props=&quot;{}&quot; class=&quot;EOP SCXW99388809 BCX8&quot;&gt;&amp;nbsp;&lt;/span&gt;&lt;/p&gt;&lt;/li&gt;&lt;/ol&gt;&lt;/div&gt;&lt;div style=&quot;-webkit-user-drag: none; -webkit-tap-highlight-color: transparent; margin: 0px; padding: 0px; user-select: text; position: relative; font-family: &amp;quot;Segoe UI&amp;quot;, &amp;quot;Segoe UI Web&amp;quot;, Arial, Verdana, sans-serif; background-color: rgb(255, 255, 255);&quot; class=&quot;ListContainerWrapper SCXW99388809 BCX8&quot;&gt;&lt;ol style=&quot;-webkit-user-drag: none; -webkit-tap-highlight-color: transparent; margin: 0px; padding: 0px; user-select: text; cursor: text; overflow: visible;&quot; start=&quot;3&quot; role=&quot;list&quot; class=&quot;NumberListStyle1 SCXW99388809 BCX8&quot;&gt;&lt;li style=&quot;-webkit-user-drag: none; -webkit-tap-highlight-color: transparent; margin: 0px 0px 0px 24px; padding: 0px; user-select: text; clear: both; cursor: text; overflow: visible; position: relative; direction: ltr; display: block; font-size: 12pt; font-family: Aptos, Aptos_MSFontService, sans-serif; vertical-align: baseline;&quot; class=&quot;OutlineElement Ltr SCXW99388809 BCX8&quot; role=&quot;listitem&quot; data-aria-level=&quot;1&quot; data-aria-posinset=&quot;3&quot; data-list-defn-props=&quot;{&amp;quot;335552541&amp;quot;:0,&amp;quot;335559685&amp;quot;:720,&amp;quot;335559991&amp;quot;:360,&amp;quot;469769242&amp;quot;:[65533,0],&amp;quot;469777803&amp;quot;:&amp;quot;left&amp;quot;,&amp;quot;469777804&amp;quot;:&amp;quot;%1.&amp;quot;,&amp;quot;469777815&amp;quot;:&amp;quot;hybridMultilevel&amp;quot;}&quot; data-listid=&quot;3&quot; data-font=&quot;&quot; data-leveltext=&quot;%1.&quot; aria-setsize=&quot;-1&quot;&gt;&lt;p style=&quot;-webkit-user-drag: none; -webkit-tap-highlight-color: transparent; margin: 0px; padding: 0px; user-select: text; overflow-wrap: break-word; white-space-collapse: preserve; vertical-align: baseline; font-kerning: none; background-color: transparent; color: windowtext;&quot; class=&quot;Paragraph SCXW99388809 BCX8&quot;&gt;&lt;span style=&quot;-webkit-user-drag: none; -webkit-tap-highlight-color: transparent; margin: 0px; padding: 0px; user-select: text; font-variant-ligatures: none !important; font-size: 12pt; line-height: 20.925px; font-family: Aptos, Aptos_EmbeddedFont, Aptos_MSFontService, sans-serif;&quot; class=&quot;TextRun SCXW99388809 BCX8&quot; lang=&quot;EN-US&quot; data-contrast=&quot;auto&quot;&gt;Confirmed orders should be sent for payment processing.&amp;nbsp;&lt;/span&gt;&lt;span style=&quot;-webkit-user-drag: none; -webkit-tap-highlight-color: transparent; margin: 0px; padding: 0px; user-select: text; font-size: 12pt; line-height: 20.925px; font-family: Aptos, Aptos_EmbeddedFont, Aptos_MSFontService, sans-serif;&quot; data-ccp-props=&quot;{}&quot; class=&quot;EOP SCXW99388809 BCX8&quot;&gt;&amp;nbsp;&lt;/span&gt;&lt;/p&gt;&lt;/li&gt;&lt;/ol&gt;&lt;/div&gt;&lt;div style=&quot;-webkit-user-drag: none; -webkit-tap-highlight-color: transparent; margin: 0px; padding: 0px; user-select: text; position: relative; font-family: &amp;quot;Segoe UI&amp;quot;, &amp;quot;Segoe UI Web&amp;quot;, Arial, Verdana, sans-serif; background-color: rgb(255, 255, 255);&quot; class=&quot;ListContainerWrapper SCXW99388809 BCX8&quot;&gt;&lt;ol style=&quot;-webkit-user-drag: none; -webkit-tap-highlight-color: transparent; margin: 0px; padding: 0px; user-select: text; cursor: text; overflow: visible;&quot; start=&quot;4&quot; role=&quot;list&quot; class=&quot;NumberListStyle1 SCXW99388809 BCX8&quot;&gt;&lt;li style=&quot;-webkit-user-drag: none; -webkit-tap-highlight-color: transparent; margin: 0px 0px 0px 24px; padding: 0px; user-select: text; clear: both; cursor: text; overflow: visible; position: relative; direction: ltr; display: block; font-size: 12pt; font-family: Aptos, Aptos_MSFontService, sans-serif; vertical-align: baseline;&quot; class=&quot;OutlineElement Ltr SCXW99388809 BCX8&quot; role=&quot;listitem&quot; data-aria-level=&quot;1&quot; data-aria-posinset=&quot;4&quot; data-list-defn-props=&quot;{&amp;quot;335552541&amp;quot;:0,&amp;quot;335559685&amp;quot;:720,&amp;quot;335559991&amp;quot;:360,&amp;quot;469769242&amp;quot;:[65533,0],&amp;quot;469777803&amp;quot;:&amp;quot;left&amp;quot;,&amp;quot;469777804&amp;quot;:&amp;quot;%1.&amp;quot;,&amp;quot;469777815&amp;quot;:&amp;quot;hybridMultilevel&amp;quot;}&quot; data-listid=&quot;3&quot; data-font=&quot;&quot; data-leveltext=&quot;%1.&quot; aria-setsize=&quot;-1&quot;&gt;&lt;p style=&quot;-webkit-user-drag: none; -webkit-tap-highlight-color: transparent; margin: 0px; padding: 0px; user-select: text; overflow-wrap: break-word; white-space-collapse: preserve; vertical-align: baseline; font-kerning: none; background-color: transparent; color: windowtext;&quot; class=&quot;Paragraph SCXW99388809 BCX8&quot;&gt;&lt;span style=&quot;-webkit-user-drag: none; -webkit-tap-highlight-color: transparent; margin: 0px; padding: 0px; user-select: text; font-variant-ligatures: none !important; font-size: 12pt; line-height: 20.925px; font-family: Aptos, Aptos_EmbeddedFont, Aptos_MSFontService, sans-serif;&quot; class=&quot;TextRun SCXW99388809 BCX8&quot; lang=&quot;EN-US&quot; data-contrast=&quot;auto&quot;&gt;Upon successful payment, the order should be dispatched for fulfillment (shipping &amp;amp; tracking).&amp;nbsp;&lt;/span&gt;&lt;span style=&quot;-webkit-user-drag: none; -webkit-tap-highlight-color: transparent; margin: 0px; padding: 0px; user-select: text; font-size: 12pt; line-height: 20.925px; font-family: Aptos, Aptos_EmbeddedFont, Aptos_MSFontService, sans-serif;&quot; data-ccp-props=&quot;{}&quot; class=&quot;EOP SCXW99388809 BCX8&quot;&gt;&amp;nbsp;&lt;/span&gt;&lt;/p&gt;&lt;/li&gt;&lt;/ol&gt;&lt;/div&gt;&lt;div style=&quot;-webkit-user-drag: none; -webkit-tap-highlight-color: transparent; margin: 0px; padding: 0px; user-select: text; clear: both; cursor: text; overflow: visible; position: relative; direction: ltr; font-family: &amp;quot;Segoe UI&amp;quot;, &amp;quot;Segoe UI Web&amp;quot;, Arial, Verdana, sans-serif; background-color: rgb(255, 255, 255);&quot; class=&quot;OutlineElement Ltr SCXW99388809 BCX8&quot;&gt;&lt;p style=&quot;-webkit-user-drag: none; -webkit-tap-highlight-color: transparent; margin: 0px 0px 10.6667px; padding: 0px; user-select: text; overflow-wrap: break-word; white-space-collapse: preserve; vertical-align: baseline; font-kerning: none; background-color: transparent; color: windowtext;&quot; class=&quot;Paragraph SCXW99388809 BCX8&quot;&gt;&lt;span style=&quot;-webkit-user-drag: none; -webkit-tap-highlight-color: transparent; margin: 0px; padding: 0px; user-select: text; font-variant-ligatures: none !important; font-size: 12pt; line-height: 20.925px; font-family: Aptos, Aptos_EmbeddedFont, Aptos_MSFontService, sans-serif;&quot; class=&quot;TextRun SCXW99388809 BCX8&quot; lang=&quot;EN-US&quot; data-contrast=&quot;auto&quot;&gt;Considering scalability and decoupling, design a solution diagram that:&lt;/span&gt;&lt;span style=&quot;-webkit-user-drag: none; -webkit-tap-highlight-color: transparent; margin: 0px; padding: 0px; user-select: text; font-size: 12pt; line-height: 20.925px; font-family: Aptos, Aptos_EmbeddedFont, Aptos_MSFontService, sans-serif;&quot; data-ccp-props=&quot;{}&quot; class=&quot;EOP SCXW99388809 BCX8&quot;&gt;&amp;nbsp;&lt;/span&gt;&lt;/p&gt;&lt;/div&gt;&lt;div style=&quot;-webkit-user-drag: none; -webkit-tap-highlight-color: transparent; margin: 0px; padding: 0px; user-select: text; position: relative; font-family: &amp;quot;Segoe UI&amp;quot;, &amp;quot;Segoe UI Web&amp;quot;, Arial, Verdana, sans-serif; background-color: rgb(255, 255, 255);&quot; class=&quot;ListContainerWrapper SCXW99388809 BCX8&quot;&gt;&lt;ul style=&quot;-webkit-user-drag: none; -webkit-tap-highlight-color: transparent; margin: 0px; padding: 0px; user-select: text; cursor: text; font-family: verdana; overflow: visible;&quot; role=&quot;list&quot; class=&quot;BulletListStyle1 SCXW99388809 BCX8&quot;&gt;&lt;li style=&quot;-webkit-user-drag: none; -webkit-tap-highlight-color: transparent; margin: 0px 0px 0px 24px; padding: 0px; user-select: text; clear: both; cursor: text; overflow: visible; position: relative; direction: ltr; display: block; font-size: 12pt; font-family: Aptos, Aptos_MSFontService, sans-serif; vertical-align: baseline;&quot; class=&quot;OutlineElement Ltr SCXW99388809 BCX8&quot; role=&quot;listitem&quot; data-aria-level=&quot;1&quot; data-aria-posinset=&quot;1&quot; data-list-defn-props=&quot;{&amp;quot;335552541&amp;quot;:1,&amp;quot;335559685&amp;quot;:720,&amp;quot;335559991&amp;quot;:360,&amp;quot;469769226&amp;quot;:&amp;quot;Symbol&amp;quot;,&amp;quot;469769242&amp;quot;:[8226],&amp;quot;469777803&amp;quot;:&amp;quot;left&amp;quot;,&amp;quot;469777804&amp;quot;:&amp;quot;&amp;quot;,&amp;quot;469777815&amp;quot;:&amp;quot;hybridMultilevel&amp;quot;}&quot; data-listid=&quot;5&quot; data-font=&quot;Symbol&quot; data-leveltext=&quot;&quot; aria-setsize=&quot;-1&quot;&gt;&lt;p style=&quot;-webkit-user-drag: none; -webkit-tap-highlight-color: transparent; margin: 0px; padding: 0px; user-select: text; overflow-wrap: break-word; white-space-collapse: preserve; vertical-align: baseline; font-kerning: none; background-color: transparent; color: windowtext;&quot; class=&quot;Paragraph SCXW99388809 BCX8&quot;&gt;&lt;span style=&quot;-webkit-user-drag: none; -webkit-tap-highlight-color: transparent; margin: 0px; padding: 0px; user-select: text; font-variant-ligatures: none !important; font-size: 12pt; line-height: 20.925px; font-family: Aptos, Aptos_EmbeddedFont, Aptos_MSFontService, sans-serif;&quot; class=&quot;TextRun SCXW99388809 BCX8&quot; lang=&quot;EN-US&quot; data-contrast=&quot;auto&quot;&gt;Supports handling millions of orders per day with spikes during sales.&lt;/span&gt;&lt;span style=&quot;-webkit-user-drag: none; -webkit-tap-highlight-color: transparent; margin: 0px; padding: 0px; user-select: text; font-size: 12pt; line-height: 20.925px; font-family: Aptos, Aptos_EmbeddedFont, Aptos_MSFontService, sans-serif;&quot; data-ccp-props=&quot;{}&quot; class=&quot;EOP SCXW99388809 BCX8&quot;&gt;&amp;nbsp;&lt;/span&gt;&lt;/p&gt;&lt;/li&gt;&lt;/ul&gt;&lt;/div&gt;&lt;div style=&quot;-webkit-user-drag: none; -webkit-tap-highlight-color: transparent; margin: 0px; padding: 0px; user-select: text; position: relative; font-family: &amp;quot;Segoe UI&amp;quot;, &amp;quot;Segoe UI Web&amp;quot;, Arial, Verdana, sans-serif; background-color: rgb(255, 255, 255);&quot; class=&quot;ListContainerWrapper SCXW99388809 BCX8&quot;&gt;&lt;ul style=&quot;-webkit-user-drag: none; -webkit-tap-highlight-color: transparent; margin: 0px; padding: 0px; user-select: text; cursor: text; font-family: verdana; overflow: visible;&quot; role=&quot;list&quot; class=&quot;BulletListStyle1 SCXW99388809 BCX8&quot;&gt;&lt;li style=&quot;-webkit-user-drag: none; -webkit-tap-highlight-color: transparent; margin: 0px 0px 0px 24px; padding: 0px; user-select: text; clear: both; cursor: text; overflow: visible; position: relative; direction: ltr; display: block; font-size: 12pt; font-family: Aptos, Aptos_MSFontService, sans-serif; vertical-align: baseline;&quot; class=&quot;OutlineElement Ltr SCXW99388809 BCX8&quot; role=&quot;listitem&quot; data-aria-level=&quot;1&quot; data-aria-posinset=&quot;2&quot; data-list-defn-props=&quot;{&amp;quot;335552541&amp;quot;:1,&amp;quot;335559685&amp;quot;:720,&amp;quot;335559991&amp;quot;:360,&amp;quot;469769226&amp;quot;:&amp;quot;Symbol&amp;quot;,&amp;quot;469769242&amp;quot;:[8226],&amp;quot;469777803&amp;quot;:&amp;quot;left&amp;quot;,&amp;quot;469777804&amp;quot;:&amp;quot;&amp;quot;,&amp;quot;469777815&amp;quot;:&amp;quot;hybridMultilevel&amp;quot;}&quot; data-listid=&quot;5&quot; data-font=&quot;Symbol&quot; data-leveltext=&quot;&quot; aria-setsize=&quot;-1&quot;&gt;&lt;p style=&quot;-webkit-user-drag: none; -webkit-tap-highlight-color: transparent; margin: 0px; padding: 0px; user-select: text; overflow-wrap: break-word; white-space-collapse: preserve; vertical-align: baseline; font-kerning: none; background-color: transparent; color: windowtext;&quot; class=&quot;Paragraph SCXW99388809 BCX8&quot;&gt;&lt;span style=&quot;-webkit-user-drag: none; -webkit-tap-highlight-color: transparent; margin: 0px; padding: 0px; user-select: text; font-variant-ligatures: none !important; font-size: 12pt; line-height: 20.925px; font-family: Aptos, Aptos_EmbeddedFont, Aptos_MSFontService, sans-serif;&quot; class=&quot;TextRun SCXW99388809 BCX8&quot; lang=&quot;EN-US&quot; data-contrast=&quot;auto&quot;&gt;Ensures loose coupling between services.&lt;/span&gt;&lt;span style=&quot;-webkit-user-drag: none; -webkit-tap-highlight-color: transparent; margin: 0px; padding: 0px; user-select: text; font-size: 12pt; line-height: 20.925px; font-family: Aptos, Aptos_EmbeddedFont, Aptos_MSFontService, sans-serif;&quot; data-ccp-props=&quot;{}&quot; class=&quot;EOP SCXW99388809 BCX8&quot;&gt;&amp;nbsp;&lt;/span&gt;&lt;/p&gt;&lt;/li&gt;&lt;/ul&gt;&lt;/div&gt;&lt;div style=&quot;-webkit-user-drag: none; -webkit-tap-highlight-color: transparent; margin: 0px; padding: 0px; user-select: text; position: relative; font-family: &amp;quot;Segoe UI&amp;quot;, &amp;quot;Segoe UI Web&amp;quot;, Arial, Verdana, sans-serif; background-color: rgb(255, 255, 255);&quot; class=&quot;ListContainerWrapper SCXW99388809 BCX8&quot;&gt;&lt;ul style=&quot;-webkit-user-drag: none; -webkit-tap-highlight-color: transparent; margin: 0px; padding: 0px; user-select: text; cursor: text; font-family: verdana; overflow: visible;&quot; role=&quot;list&quot; class=&quot;BulletListStyle1 SCXW99388809 BCX8&quot;&gt;&lt;li style=&quot;-webkit-user-drag: none; -webkit-tap-highlight-color: transparent; margin: 0px 0px 0px 24px; padding: 0px; user-select: text; clear: both; cursor: text; overflow: visible; position: relative; direction: ltr; display: block; font-size: 12pt; font-family: Aptos, Aptos_MSFontService, sans-serif; vertical-align: baseline;&quot; class=&quot;OutlineElement Ltr SCXW99388809 BCX8&quot; role=&quot;listitem&quot; data-aria-level=&quot;1&quot; data-aria-posinset=&quot;3&quot; data-list-defn-props=&quot;{&amp;quot;335552541&amp;quot;:1,&amp;quot;335559685&amp;quot;:720,&amp;quot;335559991&amp;quot;:360,&amp;quot;469769226&amp;quot;:&amp;quot;Symbol&amp;quot;,&amp;quot;469769242&amp;quot;:[8226],&amp;quot;469777803&amp;quot;:&amp;quot;left&amp;quot;,&amp;quot;469777804&amp;quot;:&amp;quot;&amp;quot;,&amp;quot;469777815&amp;quot;:&amp;quot;hybridMultilevel&amp;quot;}&quot; data-listid=&quot;5&quot; data-font=&quot;Symbol&quot; data-leveltext=&quot;&quot; aria-setsize=&quot;-1&quot;&gt;&lt;p style=&quot;-webkit-user-drag: none; -webkit-tap-highlight-color: transparent; margin: 0px; padding: 0px; user-select: text; overflow-wrap: break-word; white-space-collapse: preserve; vertical-align: baseline; font-kerning: none; background-color: transparent; color: windowtext;&quot; class=&quot;Paragraph SCXW99388809 BCX8&quot;&gt;&lt;span style=&quot;-webkit-user-drag: none; -webkit-tap-highlight-color: transparent; margin: 0px; padding: 0px; user-select: text; font-variant-ligatures: none !important; font-size: 12pt; line-height: 20.925px; font-family: Aptos, Aptos_EmbeddedFont, Aptos_MSFontService, sans-serif;&quot; class=&quot;TextRun SCXW99388809 BCX8&quot; lang=&quot;EN-US&quot; data-contrast=&quot;auto&quot;&gt;Allows independent scaling of components.&lt;/span&gt;&lt;span style=&quot;-webkit-user-drag: none; -webkit-tap-highlight-color: transparent; margin: 0px; padding: 0px; user-select: text; font-size: 12pt; line-height: 20.925px; font-family: Aptos, Aptos_EmbeddedFont, Aptos_MSFontService, sans-serif;&quot; data-ccp-props=&quot;{}&quot; class=&quot;EOP SCXW99388809 BCX8&quot;&gt;&amp;nbsp;&lt;/span&gt;&lt;/p&gt;&lt;/li&gt;&lt;/ul&gt;&lt;/div&gt;&lt;div style=&quot;-webkit-user-drag: none; -webkit-tap-highlight-color: transparent; margin: 0px; padding: 0px; user-select: text; position: relative; font-family: &amp;quot;Segoe UI&amp;quot;, &amp;quot;Segoe UI Web&amp;quot;, Arial, Verdana, sans-serif; background-color: rgb(255, 255, 255);&quot; class=&quot;ListContainerWrapper SCXW99388809 BCX8&quot;&gt;&lt;ul style=&quot;-webkit-user-drag: none; -webkit-tap-highlight-color: transparent; margin: 0px; padding: 0px; user-select: text; cursor: text; font-family: verdana; overflow: visible;&quot; role=&quot;list&quot; class=&quot;BulletListStyle1 SCXW99388809 BCX8&quot;&gt;&lt;li style=&quot;-webkit-user-drag: none; -webkit-tap-highlight-color: transparent; margin: 0px 0px 0px 24px; padding: 0px; user-select: text; clear: both; cursor: text; overflow: visible; position: relative; direction: ltr; display: block; font-size: 12pt; font-family: Aptos, Aptos_MSFontService, sans-serif; vertical-align: baseline;&quot; class=&quot;OutlineElement Ltr SCXW99388809 BCX8&quot; role=&quot;listitem&quot; data-aria-level=&quot;1&quot; data-aria-posinset=&quot;4&quot; data-list-defn-props=&quot;{&amp;quot;335552541&amp;quot;:1,&amp;quot;335559685&amp;quot;:720,&amp;quot;335559991&amp;quot;:360,&amp;quot;469769226&amp;quot;:&amp;quot;Symbol&amp;quot;,&amp;quot;469769242&amp;quot;:[8226],&amp;quot;469777803&amp;quot;:&amp;quot;left&amp;quot;,&amp;quot;469777804&amp;quot;:&amp;quot;&amp;quot;,&amp;quot;469777815&amp;quot;:&amp;quot;hybridMultilevel&amp;quot;}&quot; data-listid=&quot;5&quot; data-font=&quot;Symbol&quot; data-leveltext=&quot;&quot; aria-setsize=&quot;-1&quot;&gt;&lt;p style=&quot;-webkit-user-drag: none; -webkit-tap-highlight-color: transparent; margin: 0px; padding: 0px; user-select: text; overflow-wrap: break-word; white-space-collapse: preserve; vertical-align: baseline; font-kerning: none; background-color: transparent; color: windowtext;&quot; class=&quot;Paragraph SCXW99388809 BCX8&quot;&gt;&lt;span style=&quot;-webkit-user-drag: none; -webkit-tap-highlight-color: transparent; margin: 0px; padding: 0px; user-select: text; font-variant-ligatures: none !important; font-size: 12pt; line-height: 20.925px; font-family: Aptos, Aptos_EmbeddedFont, Aptos_MSFontService, sans-serif;&quot; class=&quot;TextRun SCXW99388809 BCX8&quot; lang=&quot;EN-US&quot; data-contrast=&quot;auto&quot;&gt;Supports future enhancements (e.g., adding a recommendation engine or fraud detection).&lt;/span&gt;&lt;span style=&quot;-webkit-user-drag: none; -webkit-tap-highlight-color: transparent; margin: 0px; padding: 0px; user-select: text; font-size: 12pt; line-height: 20.925px; font-family: Aptos, Aptos_EmbeddedFont, Aptos_MSFontService, sans-serif;&quot; data-ccp-props=&quot;{}&quot; class=&quot;EOP SCXW99388809 BCX8&quot;&gt;&amp;nbsp;&lt;/span&gt;&lt;/p&gt;&lt;/li&gt;&lt;/ul&gt;&lt;/div&gt;&lt;div style=&quot;-webkit-user-drag: none; -webkit-tap-highlight-color: transparent; margin: 0px; padding: 0px; user-select: text; clear: both; cursor: text; overflow: visible; position: relative; direction: ltr; font-family: &amp;quot;Segoe UI&amp;quot;, &amp;quot;Segoe UI Web&amp;quot;, Arial, Verdana, sans-serif; background-color: rgb(255, 255, 255);&quot; class=&quot;OutlineElement Ltr SCXW99388809 BCX8&quot;&gt;&lt;p style=&quot;-webkit-user-drag: none; -webkit-tap-highlight-color: transparent; margin: 0px 0px 10.6667px; padding: 0px; user-select: text; overflow-wrap: break-word; white-space-collapse: preserve; vertical-align: baseline; font-kerning: none; background-color: transparent; color: windowtext;&quot; class=&quot;Paragraph SCXW99388809 BCX8&quot;&gt;&lt;span style=&quot;-webkit-user-drag: none; -webkit-tap-highlight-color: transparent; margin: 0px; padding: 0px; user-select: text; font-variant-ligatures: none !important; color: rgb(255, 0, 0); font-size: 12pt; font-style: italic; line-height: 20.925px; font-family: Aptos, Aptos_EmbeddedFont, Aptos_MSFontService, sans-serif; font-weight: bold;&quot; class=&quot;TextRun SCXW99388809 BCX8&quot; lang=&quot;EN-US&quot; data-contrast=&quot;none&quot;&gt;Ignore security concerns for now.&lt;/span&gt;&lt;span style=&quot;-webkit-user-drag: none; -webkit-tap-highlight-color: transparent; margin: 0px; padding: 0px; user-select: text; font-size: 12pt; line-height: 20.925px; font-family: Aptos, Aptos_EmbeddedFont, Aptos_MSFontService, sans-serif; color: rgb(255, 0, 0);&quot; data-ccp-props=&quot;{}&quot; class=&quot;EOP SCXW99388809 BCX8&quot;&gt;&amp;nbsp;&lt;/span&gt;&lt;/p&gt;&lt;/div&gt;" style="text;html=1;whiteSpace=wrap;overflow=hidden;rounded=0;" vertex="1" parent="1">
          <mxGeometry x="830" y="140" width="700" height="430" as="geometry" />
        </mxCell>
      </root>
    </mxGraphModel>
  </diagram>
</mxfile>
